<svg xmlns="http://www.w3.org/2000/svg" viewBox="0 0 700 720" role="img" aria-label="Десерти">
  <defs>
    <linearGradient id="bg" x1="0" y1="0" x2="1" y2="1"><stop stop-color="#fff7ed"/><stop offset="1" stop-color="#f2c8b8"/></linearGradient>
    <filter id="s"><feDropShadow dx="0" dy="20" stdDeviation="16" flood-opacity=".15"/></filter>
  </defs>
  <rect width="700" height="720" fill="url(#bg)"/>
  <circle cx="560" cy="120" r="110" fill="#c9824b" opacity=".18"/>
  <circle cx="110" cy="610" r="160" fill="#6d4534" opacity=".12"/>
  <g transform="translate(80 105)" filter="url(#s)">
    <rect x="0" y="372" width="540" height="56" rx="28" fill="#4b2f24"/>
    <g transform="translate(45 0)">
      <rect x="0" y="205" width="160" height="180" rx="22" fill="#f7d6bd"/>
      <path d="M0 230c45-58 115-58 160 0v-15C118 158 42 158 0 215z" fill="#fff7ed"/>
      <circle cx="42" cy="185" r="18" fill="#d05b4c"/><circle cx="94" cy="172" r="16" fill="#6d4534"/><circle cx="128" cy="194" r="15" fill="#c9824b"/>
    </g>
    <g transform="translate(214 88)">
      <rect x="0" y="138" width="132" height="160" rx="20" fill="#fffdf8"/>
      <path d="M0 162c36-52 96-52 132 0v-14c-34-50-98-50-132 0z" fill="#e0a06d"/>
      <circle cx="33" cy="122" r="16" fill="#f2c8b8"/><circle cx="72" cy="111" r="14" fill="#d05b4c"/><circle cx="102" cy="130" r="13" fill="#6d4534"/>
    </g>
    <g transform="translate(360 45)">
      <rect x="0" y="165" width="140" height="175" rx="22" fill="#e6b27d"/>
      <path d="M0 190c40-55 100-55 140 0v-12c-38-55-102-55-140 0z" fill="#fff7ed"/>
      <circle cx="40" cy="146" r="16" fill="#fffdf8"/><circle cx="76" cy="132" r="15" fill="#d05b4c"/><circle cx="110" cy="154" r="13" fill="#4b2f24"/>
    </g>
    <text x="70" y="500" fill="#4b2f24" font-family="Georgia, serif" font-size="54" font-weight="700">Desserts</text>
  </g>
</svg>
